<?xml version="1.0" encoding="UTF-8"?>
<svg xmlns="http://www.w3.org/2000/svg" xmlns:xlink="http://www.w3.org/1999/xlink" width="221.1pt" height="39pt" viewBox="0 0 221.1 39" version="1.1">
<defs>
<clipPath id="clip1">
  <path d="M 207 8 L 221.101563 8 L 221.101563 34 L 207 34 Z M 207 8 "/>
</clipPath>
</defs>
<g id="surface1">
<path style=" stroke:none;fill-rule:evenodd;fill:rgb(6.272888%,16.479492%,51.367188%);fill-opacity:1;" d="M 10.199219 25.273438 C 8.980469 25.417969 0.894531 29.585938 0.078125 30.3125 C 2.917969 29.617188 5.28125 28.367188 8.667969 27.820313 C 9.660156 27.496094 11.484375 27.308594 12.644531 27.367188 C 12.347656 28.476563 9.816406 32.324219 9.105469 33.257813 L 9.097656 37.121094 L 13.6875 37.199219 L 19.855469 27.144531 C 27.03125 27.429688 34.621094 30.207031 40.898438 33.046875 C 41.839844 33.472656 43.183594 34.03125 43.894531 34.523438 C 44.753906 35.121094 45.082031 36.289063 45.851563 37.152344 C 47.902344 37.289063 48.535156 36.832031 50.214844 37.804688 C 52.167969 38.9375 51.941406 38.574219 56.511719 35.855469 C 57.613281 35.199219 58.824219 34.65625 59.769531 33.898438 C 58.917969 32.609375 51.871094 29.832031 50.277344 28.558594 C 49.410156 28.359375 46.671875 27.1875 46.105469 26.496094 C 44.707031 24.808594 31.078125 1.789063 29.777344 0.242188 L 25.457031 7.027344 C 23.941406 9.445313 22.617188 11.570313 21.183594 13.917969 C 19.734375 16.289063 18.355469 18.539063 16.914063 20.8125 C 14.34375 24.867188 15.722656 23.207031 10.199219 25.273438 Z M 10.199219 25.273438 "/>
<path style=" stroke:none;fill-rule:evenodd;fill:rgb(94.139099%,48.631287%,0%);fill-opacity:1;" d="M 10.199219 25.273438 C 15.722656 23.207031 14.34375 24.867188 16.914063 20.8125 C 18.355469 18.539063 19.734375 16.289063 21.183594 13.917969 C 22.617188 11.570313 23.941406 9.445313 25.457031 7.027344 L 29.777344 0.242188 C 31.078125 1.789063 44.707031 24.808594 46.105469 26.496094 C 46.671875 27.1875 49.410156 28.359375 50.277344 28.558594 L 50.273438 0.0546875 L 9.246094 -0.0117188 L 9.125 25.570313 C 10.203125 25.402344 9.453125 25.566406 10.199219 25.273438 Z M 10.199219 25.273438 "/>
<path style=" stroke:none;fill-rule:evenodd;fill:rgb(6.272888%,16.479492%,51.367188%);fill-opacity:1;" d="M 152.230469 33.570313 C 154.183594 33.890625 158.453125 33.664063 160.628906 33.660156 C 163.414063 33.652344 165.636719 33.183594 167.171875 31.734375 C 168.507813 30.46875 169.484375 27.839844 169.085938 25.226563 C 168.703125 22.75 167.136719 21.285156 165.148438 20.46875 C 165.796875 19.632813 167.746094 18.816406 168.046875 15.816406 C 168.289063 13.363281 167.136719 11.339844 165.914063 10.292969 C 164.414063 9.007813 162.335938 8.761719 159.960938 8.75 C 157.71875 8.738281 154.402344 8.566406 152.28125 8.800781 Z M 155.210938 30.648438 C 160.265625 30.917969 166.039063 31.707031 166.078125 26.53125 C 166.121094 21.203125 159.855469 22.03125 155.21875 22.207031 Z M 155.210938 19.203125 C 157.605469 19.246094 162.777344 19.675781 164.253906 18.105469 C 165.152344 17.148438 165.472656 15.160156 164.78125 13.664063 C 163.570313 11.046875 158.488281 11.605469 155.210938 11.734375 Z M 155.210938 19.203125 "/>
<path style=" stroke:none;fill-rule:evenodd;fill:rgb(6.272888%,16.479492%,51.367188%);fill-opacity:1;" d="M 135.613281 17.457031 C 134.605469 16.785156 133.914063 15.582031 132.046875 15.308594 C 123.386719 14.039063 121.871094 28.753906 127.828125 32.972656 C 132.316406 36.144531 135.242188 32.082031 135.800781 31.652344 L 135.828125 33.640625 L 138.3125 33.65625 C 138.5625 30.886719 138.671875 10.632813 138.238281 8.746094 L 135.714844 8.757813 Z M 130.273438 17.988281 C 125.019531 19.800781 126.382813 33.601563 132.8125 31.308594 C 137.804688 29.527344 136.621094 15.796875 130.273438 17.988281 Z M 130.273438 17.988281 "/>
<path style=" stroke:none;fill-rule:evenodd;fill:rgb(6.272888%,16.479492%,51.367188%);fill-opacity:1;" d="M 63.957031 33.589844 L 67.082031 33.660156 L 69.542969 26.121094 L 78.910156 26.128906 L 81.539063 33.652344 L 84.847656 33.636719 L 75.746094 8.757813 L 72.648438 8.753906 Z M 70.546875 23.429688 L 77.871094 23.425781 L 74.160156 11.941406 Z M 70.546875 23.429688 "/>
<path style=" stroke:none;fill-rule:evenodd;fill:rgb(6.272888%,16.479492%,51.367188%);fill-opacity:1;" d="M 175.179688 21.167969 C 175.746094 18.792969 176.742188 17.6875 179.613281 17.777344 C 182.433594 17.867188 183.433594 19.199219 183.242188 22.0625 C 180.703125 24.105469 171.402344 21.890625 172.011719 29.433594 C 172.226563 32.09375 173.972656 33.742188 176.503906 34.019531 C 180.613281 34.46875 181.960938 32.382813 183.40625 31.652344 L 184.046875 33.664063 L 186.808594 33.652344 C 186.488281 31.855469 186.164063 31.398438 186.113281 29.210938 C 185.972656 23.8125 187.066406 17.925781 183.820313 16.066406 C 180.621094 14.230469 173.597656 14.949219 172.613281 19.996094 C 172.480469 20.6875 171.882813 20.8125 175.179688 21.167969 Z M 183.269531 24.71875 C 179.816406 25.464844 175.65625 25.710938 175.050781 28 C 174.089844 31.632813 178.742188 32.710938 181.449219 30.609375 C 183.109375 29.320313 183.308594 27.492188 183.269531 24.71875 Z M 183.269531 24.71875 "/>
<path style=" stroke:none;fill-rule:evenodd;fill:rgb(6.272888%,16.479492%,51.367188%);fill-opacity:1;" d="M 121.535156 28.261719 L 118.9375 27.878906 C 116.453125 34.660156 109.226563 31.050781 109.902344 25.433594 L 121.828125 25.433594 C 123.265625 13.261719 108.371094 11.464844 107.039063 22.730469 C 106.414063 28.007813 108.09375 32.382813 112.132813 33.699219 C 114.328125 34.414063 116.972656 34.097656 118.671875 33.023438 C 119.863281 32.269531 120.84375 30.984375 121.371094 29.675781 C 121.605469 29.09375 121.757813 28.75 121.535156 28.261719 Z M 109.984375 22.878906 L 118.902344 22.910156 C 119.058594 16.023438 110.152344 16.097656 109.984375 22.878906 Z M 109.984375 22.878906 "/>
<g clip-path="url(#clip1)" clip-rule="nonzero">
<path style=" stroke:none;fill-rule:evenodd;fill:rgb(6.272888%,16.479492%,51.367188%);fill-opacity:1;" d="M 207.777344 33.613281 L 210.527344 33.628906 C 210.777344 28.214844 209.535156 26.535156 212.433594 24.609375 C 213.128906 25.164063 216.988281 32.253906 217.820313 33.613281 L 221.121094 33.652344 L 214.441406 22.335938 L 220.460938 15.636719 C 216.675781 15.5625 217.265625 14.953125 212.789063 20.410156 C 212.148438 21.1875 211.585938 22.058594 210.558594 22.652344 L 210.546875 8.8125 L 207.855469 8.75 Z M 207.777344 33.613281 "/>
</g>
<path style=" stroke:none;fill-rule:evenodd;fill:rgb(6.272888%,16.479492%,51.367188%);fill-opacity:1;" d="M 192.871094 17.964844 L 192.789063 15.640625 L 190.394531 15.636719 L 190.339844 33.617188 L 193.105469 33.621094 C 193.328125 26.730469 191.570313 18.316406 197.054688 17.902344 C 202.628906 17.484375 200.289063 26 200.839844 33.636719 L 203.496094 33.648438 C 203.738281 30.984375 203.800781 20.191406 203.027344 18.300781 C 202.253906 16.421875 200.640625 15.296875 198.15625 15.242188 C 195.183594 15.179688 194.1875 16.578125 192.871094 17.964844 Z M 192.871094 17.964844 "/>
<path style=" stroke:none;fill-rule:evenodd;fill:rgb(99.609375%,99.609375%,99.609375%);fill-opacity:1;" d="M 23.117188 22.246094 C 32.855469 21.882813 32.710938 23.316406 37.289063 23.582031 L 29.777344 11.523438 C 29.730469 11.558594 29.664063 11.5625 29.652344 11.636719 L 28.03125 14.0625 C 27.121094 15.539063 23.332031 21.390625 23.117188 22.246094 Z M 23.117188 22.246094 "/>
<path style=" stroke:none;fill-rule:evenodd;fill:rgb(6.272888%,16.479492%,51.367188%);fill-opacity:1;" d="M 86.9375 33.65625 L 89.59375 33.644531 L 89.636719 8.777344 L 86.996094 8.746094 C 86.539063 10.902344 86.878906 18.460938 86.878906 21.171875 C 86.878906 24.957031 86.597656 30.023438 86.9375 33.65625 Z M 86.9375 33.65625 "/>
<path style=" stroke:none;fill-rule:evenodd;fill:rgb(6.272888%,16.479492%,51.367188%);fill-opacity:1;" d="M 93.847656 33.65625 L 96.539063 33.652344 L 96.601563 8.78125 L 93.859375 8.761719 Z M 93.847656 33.65625 "/>
<path style=" stroke:none;fill-rule:evenodd;fill:rgb(6.272888%,16.479492%,51.367188%);fill-opacity:1;" d="M 100.886719 33.5625 L 103.613281 33.644531 L 103.644531 15.683594 L 100.910156 15.644531 Z M 100.886719 33.5625 "/>
<path style=" stroke:none;fill-rule:evenodd;fill:rgb(99.21875%,31.37207%,0.392151%);fill-opacity:1;" d="M 8.667969 27.820313 C 9.488281 27.703125 9.035156 27.84375 9.121094 28.730469 C 9.148438 29.039063 9.09375 29.945313 9.085938 30.324219 C 9.082031 31.304688 9.101563 32.28125 9.105469 33.257813 C 9.816406 32.324219 12.347656 28.476563 12.644531 27.367188 C 11.484375 27.308594 9.660156 27.496094 8.667969 27.820313 Z M 8.667969 27.820313 "/>
<path style=" stroke:none;fill-rule:evenodd;fill:rgb(6.272888%,16.479492%,51.367188%);fill-opacity:1;" d="M 100.886719 12.304688 L 103.617188 12.304688 L 103.613281 8.765625 L 100.90625 8.761719 Z M 100.886719 12.304688 "/>
</g>
</svg>
